<?xml version="1.0" standalone="no"?>
<!DOCTYPE svg PUBLIC "-//W3C//DTD SVG 20010904//EN"
 "http://www.w3.org/TR/2001/REC-SVG-20010904/DTD/svg10.dtd">
<svg version="1.0" xmlns="http://www.w3.org/2000/svg"
 width="261.000000pt" height="102.000000pt" viewBox="0 0 261.000000 102.000000"
 preserveAspectRatio="xMidYMid meet">

<g transform="translate(0.000000,102.000000) scale(0.100000,-0.100000)"
fill="#1b62d4" stroke="none">
<path d="M1160 1013 c-27 -10 -40 -36 -40 -80 0 -30 5 -45 15 -49 20 -8 47 15
40 35 -12 41 -14 41 581 39 l569 -3 -118 -118 c-112 -112 -128 -137 -88 -137
17 0 140 99 190 154 l24 26 53 -50 c58 -54 172 -117 198 -107 32 13 15 37 -53
72 -71 38 -122 80 -161 134 l-21 31 100 0 c110 0 115 -3 92 -64 -8 -18 -6 -28
5 -37 38 -31 84 92 51 136 -15 20 -28 20 -719 22 -387 1 -710 -1 -718 -4z"/>
<path d="M435 1003 c-67 -8 -147 -38 -183 -69 -37 -32 -37 -32 -18 -53 35 -38
117 -55 266 -56 146 0 231 17 264 54 59 65 -153 145 -329 124z"/>
<path d="M2066 942 c-3 -5 -15 -34 -27 -66 -25 -68 -79 -166 -114 -208 -29
-34 -32 -53 -9 -62 10 -4 28 6 51 29 19 19 37 35 39 35 2 0 4 -74 4 -165 l0
-165 -110 0 -110 0 0 199 0 200 38 3 c32 3 37 6 37 28 0 22 -5 25 -37 28 l-38
3 0 53 c0 57 -15 81 -44 70 -12 -5 -16 -20 -16 -65 l0 -59 -107 0 c-115 0
-137 -6 -131 -36 3 -17 15 -19 121 -22 l117 -3 0 -199 0 -200 -134 0 c-73 0
-148 3 -165 6 l-31 7 0 158 0 159 44 0 c50 0 71 25 40 47 -21 15 -320 18 -342
4 -8 -5 -12 -17 -10 -27 2 -15 13 -20 47 -22 l43 -3 -7 -97 c-8 -111 -26 -160
-79 -216 -65 -67 -27 -104 43 -41 65 59 84 111 89 242 l5 113 33 0 33 0 3
-175 c2 -139 6 -177 18 -189 12 -11 99 -15 496 -21 547 -8 663 -3 700 29 32
28 46 122 20 132 -22 9 -42 -10 -50 -48 -11 -55 -18 -58 -147 -58 l-119 0 0
88 1 87 81 45 c44 24 94 57 111 73 27 25 29 30 15 43 -14 14 -25 10 -109 -41
l-94 -56 -3 69 c-3 73 -17 100 -47 88 -13 -4 -15 -36 -15 -201 l0 -195 -70 0
-70 0 0 218 c0 208 1 220 25 277 31 75 33 115 6 115 -11 0 -22 -4 -25 -8z"/>
<path d="M1180 865 c-10 -12 -10 -18 0 -30 18 -22 298 -22 306 0 4 8 1 22 -6
30 -18 22 -282 22 -300 0z"/>
<path d="M77 762 c-28 -31 -56 -105 -68 -182 -29 -191 70 -427 137 -325 28 42
44 134 44 250 0 202 -53 323 -113 257z"/>
<path d="M874 772 c-43 -28 -69 -163 -61 -316 6 -127 18 -175 52 -213 l24 -28
30 30 c102 100 103 413 2 514 -23 23 -30 25 -47 13z"/>
<path d="M582 710 c-120 -61 -276 -236 -304 -343 -11 -44 -11 -49 10 -69 20
-21 25 -21 69 -10 107 28 283 185 343 306 67 134 17 183 -118 116z"/>
<path d="M1543 643 c-44 -17 38 -40 83 -23 23 9 25 13 14 20 -16 10 -76 12
-97 3z"/>
<path d="M1485 567 c-8 -39 10 -86 27 -69 13 13 6 94 -9 99 -7 3 -15 -10 -18
-30z"/>
<path d="M1595 581 c-31 -18 -63 -66 -52 -77 12 -12 48 8 74 42 32 43 21 62
-22 35z"/>
<path d="M1659 578 c-3 -36 1 -81 6 -87 13 -13 26 21 23 59 -3 46 -27 69 -29
28z"/>
<path d="M1535 471 c-15 -25 60 -40 97 -20 17 9 18 13 7 20 -19 12 -96 11
-104 0z"/>
<path d="M1141 206 c-31 -17 -50 -53 -51 -94 0 -65 44 -112 106 -112 35 0 94
59 94 94 0 25 -2 26 -60 26 -53 0 -60 -2 -60 -20 0 -16 7 -20 35 -20 41 0 46
-16 10 -32 -51 -23 -96 25 -81 87 9 37 41 50 86 35 55 -18 70 -9 38 23 -30 30
-77 35 -117 13z"/>
<path d="M1337 213 c-4 -3 -7 -51 -7 -105 l0 -98 50 0 c38 0 50 4 50 15 0 10
-10 15 -30 15 l-30 0 0 90 c0 68 -3 90 -13 90 -8 0 -17 -3 -20 -7z"/>
<path d="M1522 209 c-36 -14 -16 -29 38 -29 56 0 74 15 35 30 -31 12 -42 12
-73 -1z"/>
<path d="M1707 213 c-4 -3 -7 -51 -7 -105 l0 -99 52 3 c47 3 54 6 66 31 12 24
11 31 -1 50 -8 13 -12 37 -9 58 3 30 0 40 -19 53 -24 16 -70 22 -82 9z m68
-58 c0 -11 -8 -21 -17 -23 -14 -3 -18 3 -18 23 0 20 4 26 18 23 9 -2 17 -12
17 -23z m5 -70 c10 -12 10 -18 0 -30 -21 -25 -40 -18 -40 15 0 33 19 40 40 15z"/>
<path d="M1912 203 c-5 -10 -21 -49 -35 -88 -14 -38 -28 -78 -32 -87 -5 -14
-2 -18 13 -18 12 0 23 9 27 20 9 29 81 29 90 0 4 -11 15 -20 27 -20 12 0 18 5
15 13 -2 6 -19 54 -38 105 -33 91 -49 109 -67 75z m32 -75 c9 -35 8 -38 -14
-38 -11 0 -20 3 -20 8 0 19 13 52 20 52 4 0 10 -10 14 -22z"/>
<path d="M2050 116 l0 -106 75 0 c57 0 75 3 75 14 0 7 -9 16 -20 19 -18 5 -20
14 -20 91 0 69 -3 86 -15 86 -11 0 -15 -19 -17 -87 -3 -73 -6 -88 -20 -91 -15
-3 -18 8 -20 85 -3 74 -6 88 -20 91 -16 3 -18 -7 -18 -102z"/>
<path d="M2281 135 c-17 -48 -36 -95 -42 -106 -8 -16 -6 -19 14 -19 16 0 26 7
30 20 4 15 14 20 41 20 25 0 38 -6 46 -20 6 -11 19 -20 29 -20 17 0 15 10 -19
103 -22 61 -44 103 -53 105 -10 2 -24 -22 -46 -83z m58 -15 c9 -28 8 -30 -14
-30 -22 0 -23 2 -14 30 6 17 12 30 14 30 2 0 8 -13 14 -30z"/>
<path d="M2450 218 c-1 -2 -2 -49 -3 -106 -2 -91 0 -102 16 -102 14 0 17 10
17 60 0 33 3 60 8 60 4 0 23 -27 41 -60 23 -38 41 -60 53 -60 16 0 18 11 18
106 0 93 -2 105 -17 102 -14 -2 -16 -14 -14 -66 1 -34 -1 -62 -6 -62 -4 0 -24
28 -43 63 -19 34 -43 63 -53 65 -9 2 -17 2 -17 0z"/>
<path d="M380 194 c-68 -13 -128 -36 -145 -54 -18 -20 -18 -21 4 -44 83 -88
332 -108 470 -38 95 47 95 83 0 116 -53 18 -268 31 -329 20z"/>
<path d="M1460 144 c-12 -31 -3 -84 15 -87 13 -3 19 93 6 106 -7 7 -14 1 -21
-19z"/>
<path d="M1636 163 c-10 -10 -7 -101 4 -108 6 -3 15 6 20 21 16 40 -3 108 -24
87z"/>
<path d="M1556 139 c-55 -43 -59 -93 -4 -62 25 15 58 59 58 78 0 12 -29 4 -54
-16z"/>
<path d="M1505 30 c-3 -5 0 -13 8 -16 23 -8 102 0 102 11 0 14 -102 19 -110 5z"/>
</g>
</svg>
